/* XPM */
static char *_bfe4d402db94ff3d0e4707f3353fa76tHESjazlmZK8TndU[] = {
/* columns rows colors chars-per-pixel */
"64 64 51 1 ",
"  c #912714",
". c #962A14",
"X c #9C2D16",
"o c #A42E17",
"O c #A92F17",
"+ c #A62F18",
"@ c #A92F18",
"# c #A53017",
"$ c #A63018",
"% c #AC3219",
"& c #B4331A",
"* c #BB351A",
"= c #B6391C",
"- c #BB3A1D",
"; c #C2371B",
": c #C8371B",
"> c #C5391C",
", c #CC3A1C",
"< c #D43C1D",
"1 c #DB3E1E",
"2 c #E13F1F",
"3 c #CB3F20",
"4 c #D33F20",
"5 c #DE3F20",
"6 c #E03F20",
"7 c #CF411F",
"8 c #D1411F",
"9 c #DE401F",
"0 c #E2401F",
"q c #D64221",
"w c #DC4221",
"e c #DD4924",
"r c #E44120",
"t c #EB4422",
"y c #E64A24",
"u c #EC4A24",
"i c #F24622",
"p c #F94622",
"a c #F44B25",
"s c #FC4D26",
"d c #FE4F28",
"f c #E85127",
"g c #EB5329",
"h c #ED5B2C",
"j c #FD5027",
"k c #F35429",
"l c #FD5229",
"z c #F45E2E",
"x c #FE5A2C",
"c c #FE612F",
"v c #FE6230",
/* pixels */
"asssssssssasssssssssssssssssssr4psssssspppspsssspsssppspaiipsp08",
"siiittttirtiaitittiiiitttittur;%si6i2it00tiiti000itii00000iii9;o",
"str2r,<1<,rr<<r<w<1515,rr1<r6<;@si6:111:::<19<9<:<9,<<9:99:80<&o",
"si,r<51<<51<15r51<5<r5<<w<5<45&%s6<<1<22<1<<::,11,1,1,11999,,:&o",
"st<5r56,*56<55<r651161<<21<,<<*@p2221:<<221122:;:11,0<912<1<9<*o",
"st,<><,16:;1,,<1<<,1<65<<<5rrr*%p2<<<1<<<1:<<:,<::::110:<<:101&o",
"st9,>>>:<><>,,1555<1<<61<<<r1<&%si<<<2<<2<<<;:<:,<0<:;,;:1<:1<&o",
"si<,<<<4*,:>14,,>r<<<116r<5<6<*%s0<<2<<<2::;::2,<1:01,,,<<<:11*o",
"st<,;<<4,5<1,5<<5,15<<<51,1<14*%pt201<,<:<;12,2::122<21221<<<1&o",
"su5,*16,&5<<<5r5,<<<<,<6<<,161&$s022<1:<,<<<21<22<<<:2211122<:&o",
"si;*,,,,,546<6,r4555,<**>,><,:&+s01<<;,<21<1212:::<<1212211:1<&o",
"sr*>5,><*4,<<4;<,,<,,54<>,1115&%p0,,,1<,2<:<2<1<12<:11<:<<:<1<&o",
"s4*5,4<,&<<>>*,>r3<54<,36<w<,>&%st<1221<<2<1,1<2<<:11<12<:<:<1OO",
"t40145<<,<544*>,>;5:65<5<<<1<<%$st1,<,11<<,<<<:<11<121111121<:&o",
"sq***;;******;**%@&@%&=&**&;**%#p1&&&*&**;;;*;**;&;;&;;*;&&;&&Oo",
"w*+$$$$$@$@++++++++ooX.XXX$$%#+%8*+ooooooOooOOooooOOOOooOOOOOOOO",
"dddldddddddjdjt3asssssssljjjjsyujjsjssssjjjaau08pjjjjljllsddddds",
"uttitwwwwtrtru3@sitittit00000i990p0i0iiit00000;&siiiiiiaiatuuiut",
"65r6,,5<15,,3,&+su122<20001090<,,01<091,<,9890*=ji990i0<<5rtrr<2",
"<<<3,<,4<,,:<>&+st21t11r100090<,<<<<00,<,19000-&ji0900015rrr165r",
",<*;<,;;,<52<3;%ji1<<00t00102100,>9<11<<<2001<*&s089819916rtr6r1",
"&&::5<w5t<rr<,*%st200<1101001001<,,9<11<9021,<*&j09000<<5tw<16<*",
",6t1tr5<1<5<55>%st12111<<01,11110,<<11<2002<99*&j0090<<<,:,,,@&*",
"6<rr655r<,w,5<,%ji21<112<1,<01229,,<1<200001<0*&ji099<,:**;*:<26",
"<456<54<<1<<<<>%s08001290<;<<<011,,,111<01<<<1*=dit656,553,,<rr<",
">><,,;<5,<,,5,*+si00101<00>,<000019*>191r2<2<<-&dt651t5<*&;**,,<",
",2<:1rr9,1w2,3*+st101<0009>11<9<>101<<<11<rr<,;&st<51,:,:<6<,<<1",
",51<<11911<tr6>%si0100<11<<<<<2<<001:,<<2<1190*&su114<<<5656012<",
"w1<1rrr<6r4t56;%j09<101011<012,9109<:>99<<1<,<=%dur1522w1,w<<<,r",
"<t9r0r<w4<64<t3%ji<81<01<*-<,9<<10001>>1<1<1<<*&st1<4r5<<<<<,<19",
"*&*-;-&&***;*>&%sw-;*-*-**%-*&*&*;*>;&%&->*;**&&aw;**-;;**&**&**",
"$$$$$$$%%&=&&%&&r>%&%%%%&%%$X%%%%%%&%%o#%%$&%%%*r-$$#$$$$X#$$$#o",
"cvcccccccccvvvvccccccczhzxccccfe0llllllkuu0kjjljljjjjjjjjjljjay<",
"vxlxkxlxxlxlxlxxlxxxxllgffkxkze7aa0aiii001990uipaituiiuiiiiiut>%",
"vxjjjslslssslaaljjauljau0laajj97k00iii002222900it1122200t1002<;%",
"cxjjasaausdssslliujaljuuyajax08-j00i00i0iii2,,<0120t0002900001*O",
"churaar0raujaaaaajlajaugjjaljf7=j02pi0p0ii020,,122,11211222211;@",
"hfurguykujslallaajjjlauajjuuuf7-ji20202200i1112<<<1011<22i22i2;@",
"ckakujaljlajudllaaaaaarak09yu077j0<<220i020090221:<110222pi222;O",
"clsssljljjsjasaajjsljayy9uyuk07-ja<:<2i00100000i1::,100i22iii2;@",
"cxjilljjsajlalayulaauyqq800f0u7-ji00<1<<1,<1222011,:>102222i22:O",
"cxasaljjdlajuauueq7,qqwuaaajaa77jai00061;<<<20122i01<,<2222i22;O",
"vxjukjauyuyquftaak88yslsjjaaja9-ja00166212111<<11000<2<<212222:O",
"vxayyuuaaaktasddllsiulljjjjjjj97jp00112r02i022<2121220112122i2;O",
"vxjjajaallldudaalalajjlajjjajj8;li111011i202ii2211,,<02<<<1022:O",
"vlkasjjusajaufakuaaajausssjjja87ju2020<<2<<12222112<1<<<1<<02<;O",
"vgqqqqqwqwqqqq7qwqqqw7ww8888987;aw->:::;::;:;*:::;::*;:*&&&*:*OO",
"hq33777,3,3333>-7>7>737>7777777:r,*&***&***&**&%&&***&***&&%O%&&",
"ssdaaddddsdsllr3ppppppiipipppppppppppppppppppi<,assssjdsdsddddds",
"uttrwwutriitit,%p09111912121009191<921111112<1&Oju0ttituutttittt",
"<1w15,15rt65<5*%p9::::,:::::,,::;::::;::<;:,*:O+jr,8rr5<154tr14r",
"<111,,,<w<<1<4*$p0;;,,:;<:,:;:7,:::,:;,,,:<:;:o%s0,<54,<5<<<11,<",
"9w5<511rr<556r*@p0:;::<;,<;;::::<:;:<,;<:<:*:>+Ojr6<t1r55626rr11",
"r<<510,rt6r16<>%p0,;<,:;:,;;:,<:<:<:,,,:;:*:::X+luw<16<1616<120<",
"5<165111615665>%p0,::<::::;;:,<,::*:;:::;;****XXst1,<r51t6210661",
"2r<rr1<9<<5r56>@p0::;:<<:,<,::,:;&&&*&:*&;***&.osu21:6152tt0611<",
"5566226511rr15>%p1:;,,,,,1,:<,:,::;;:*,;:>*:*;o+dt11:2t5t21<11r<",
"<6<51t6<5656rr;%2<::<;<,::;,,:,::,,<;:,:;,*;;:+#ji655166t6412161",
"5<<16661,<r555;%p<*::*::::;::;<,,,::;;,:*::;>,oOsu165>5426<56<1<",
"6<,11164;,,554*@p1&&*;;;::,;<,,,:,8;;;;::*::,:o+si555:,511<<51r<",
"1:,>:*,3*;:<<,*$p2,&;::,<:;,,:;,,;,:;,::,*:::*++dt4t4::515>3<1<,",
"<><,,3<:,;,5<5>%p2:;&;:::*;,;*;;**:,:;:;;&:;:&++sr1<5:;:,:%&,>,;",
"*;*******%&&**&%p,OOOoOOOOoOOOOOoOOOOOOO@+@@@+.+aq;**%+@&&&&&**&",
"@@++@@+++X++X++@<O..................X.....X... +w*@$@+oX@@+@+@+@"
};
